<?xml version="1.0" encoding="UTF-8"?>
<svg width="100px" height="100px" viewBox="0 0 100 100" version="1.1" xmlns="http://www.w3.org/2000/svg" xmlns:xlink="http://www.w3.org/1999/xlink">
    <!-- Generator: Sketch 47.1 (45422) - http://www.bohemiancoding.com/sketch -->
    <title>briefcase</title>
    <desc>Created with Sketch.</desc>
    <defs></defs>
    <g id="Page-1" stroke="none" stroke-width="1" fill="none" fill-rule="evenodd">
        <g id="briefcase" fill-rule="nonzero" fill="#000000">
            <g transform="translate(0.000000, 7.000000)">
                <path d="M62.4568968,58.99371 C62.4568968,59.9603397 62.1031755,60.7976688 61.3974909,61.5029627 C60.691025,62.2102099 59.8540866,62.5631499 58.8874569,62.5631499 L41.042992,62.5631499 C40.0757763,62.5631499 39.2396192,62.2102099 38.5331533,61.5029627 C37.8268827,60.7978641 37.4737474,59.960535 37.4737474,58.99371 L37.4737474,50.0717705 L0,50.0717705 L0,76.8389562 C0,79.2921526 0.873267616,81.3922138 2.62077944,83.139335 C4.36790062,84.8866515 6.46874305,85.7603097 8.92252544,85.7603097 L91.0081188,85.7603097 C93.4613152,85.7603097 95.5619623,84.8866515 97.3092788,83.139335 C99.0571813,81.3922138 99.9300582,79.2921526 99.9300582,76.8389562 L99.9300582,50.0717705 L62.4568968,50.0717705 L62.4568968,58.99371 L62.4568968,58.99371 Z" id="Shape"></path>
                <rect id="Rectangle-path" x="42.8266377" y="50.0717705" width="14.2769782" height="7.13790316"></rect>
                <path d="M97.3090835,17.0032295 C95.5619623,15.2557177 93.4611199,14.38245 91.0079234,14.38245 L71.3782503,14.38245 L71.3782503,5.45972929 C71.3782503,3.97257661 70.858118,2.70886794 69.8168767,1.667822 C68.7768074,0.627362018 67.5121221,0.10664373 66.0255554,0.10664373 L33.9050888,0.10664373 C32.4183268,0.10664373 31.1544228,0.627362018 30.1131815,1.667822 C29.0719403,2.70828199 28.5518079,3.97238129 28.5518079,5.45972929 L28.5518079,14.38245 L8.92252544,14.38245 C6.46893837,14.38245 4.36809594,15.2557177 2.62077944,17.0032295 C0.873267616,18.750546 0,20.8502165 0,23.3039989 L0,44.7179037 L99.9298629,44.7179037 L99.9298629,23.3039989 C99.9298629,20.8502165 99.0571813,18.750546 97.3090835,17.0032295 Z M64.2409331,14.38245 L35.6895158,14.38245 L35.6895158,7.24415625 L64.2409331,7.24415625 L64.2409331,14.38245 Z" id="Shape"></path>
            </g>
        </g>
    </g>
</svg>