<?xml version="1.0" standalone="no"?>
<!DOCTYPE svg PUBLIC "-//W3C//DTD SVG 20010904//EN"
 "http://www.w3.org/TR/2001/REC-SVG-20010904/DTD/svg10.dtd">
<svg version="1.0" xmlns="http://www.w3.org/2000/svg"
 width="96.000000pt" height="96.000000pt" viewBox="0 0 96.000000 96.000000"
 preserveAspectRatio="xMidYMid meet">
<metadata>
Created by potrace 1.15, written by Peter Selinger 2001-2017
</metadata>
<g transform="translate(0.000000,96.000000) scale(0.100000,-0.100000)"
fill="#000000" stroke="none">
<path d="M591 940 c-40 -19 -191 -154 -191 -172 0 -4 19 -8 43 -8 23 0 59 -5
81 -11 38 -10 40 -10 81 31 34 34 52 43 87 47 81 8 146 -59 135 -140 -5 -35
-20 -55 -118 -153 -62 -62 -126 -118 -141 -125 -40 -16 -99 2 -132 41 -13 17
-29 30 -33 30 -5 0 -29 -20 -53 -45 l-44 -45 20 -27 c12 -16 43 -41 69 -58 44
-27 56 -30 134 -30 75 0 92 3 131 27 65 38 255 235 279 289 27 59 28 168 2
224 -23 50 -84 109 -133 130 -54 22 -162 19 -217 -5z"/>
<path d="M339 677 c-54 -20 -83 -44 -196 -159 -61 -62 -111 -123 -122 -149
-25 -55 -28 -163 -6 -217 21 -49 80 -110 130 -133 56 -26 165 -25 224 1 40 19
191 154 191 172 0 4 -19 8 -42 8 -24 0 -60 5 -82 11 -38 10 -40 10 -81 -31
-34 -34 -52 -43 -87 -47 -81 -8 -146 59 -135 140 5 35 20 55 118 153 62 62
126 118 141 125 40 16 99 -2 132 -41 13 -17 29 -30 33 -30 5 0 28 20 52 44
l44 44 -22 31 c-38 53 -103 84 -185 88 -44 2 -85 -2 -107 -10z"/>
</g>
</svg>
