<?xml version="1.0" encoding="UTF-8"?>
<svg id="svg" xmlns="http://www.w3.org/2000/svg" xmlns:xlink="http://www.w3.org/1999/xlink" width="400" height="400" viewBox="0, 0, 400,400"><g id="svgg"><path id="path0" d="M246.440 8.416 C 229.389 16.153,166.667 72.335,166.667 79.871 C 166.667 81.775,174.635 83.344,184.375 83.357 C 194.115 83.369,209.355 85.399,218.242 87.867 C 233.970 92.234,234.877 91.887,252.208 74.878 C 292.197 35.631,351.639 60.726,344.514 113.847 C 342.024 132.412,260.675 219.567,236.484 229.587 C 220.126 236.363,195.449 228.615,181.826 212.425 C 168.359 196.421,167.621 196.550,145.864 218.719 L 127.493 237.438 136.023 248.927 C 163.535 285.986,233.650 298.796,275.000 274.317 C 301.876 258.407,381.278 176.283,391.438 153.887 C 433.155 61.931,338.277 -33.257,246.440 8.416 M141.188 117.995 C 110.050 129.646,23.436 213.328,8.547 246.147 C -24.868 319.801,26.006 399.817,106.250 399.817 C 145.136 399.817,164.174 390.652,202.518 353.472 C 238.431 318.649,239.133 316.674,215.625 316.643 C 205.885 316.631,190.645 314.601,181.758 312.133 C 166.030 307.766,165.123 308.113,147.792 325.122 C 107.803 364.369,48.361 339.274,55.486 286.153 C 57.976 267.588,139.325 180.433,163.516 170.413 C 179.874 163.637,204.551 171.385,218.174 187.575 C 231.621 203.557,232.403 203.425,253.828 181.595 L 271.892 163.189 262.757 150.361 C 240.788 119.509,180.232 103.387,141.188 117.995 " stroke="none" fill="#000000" fill-rule="evenodd"></path></g></svg>