<?xml version="1.0" encoding="UTF-8"?>
<svg xmlns="http://www.w3.org/2000/svg" xmlns:xlink="http://www.w3.org/1999/xlink" width="100pt" height="100pt" viewBox="0 0 100 100" version="1.1">
<g id="surface1">
<path style=" stroke:none;fill-rule:nonzero;fill:rgb(0%,0%,0%);fill-opacity:1;" d="M 51.542969 22.414062 L 28.042969 45.914062 C 25.3125 48.640625 21.730469 50.003906 18.148438 50.003906 C 10.421875 50.003906 4.167969 43.761719 4.167969 36.019531 C 4.167969 32.4375 5.527344 28.851562 8.253906 26.125 L 31.335938 3.046875 C 33.367188 1.015625 36.023438 0 38.691406 0 C 47.882812 0 52.601562 11.191406 46.046875 17.746094 L 25.550781 38.242188 C 22.910156 40.882812 18.613281 40.882812 15.976562 38.242188 C 13.332031 35.605469 13.332031 31.308594 15.976562 28.667969 L 32.515625 12.125 L 35.964844 15.574219 L 19.425781 32.117188 C 18.683594 32.855469 18.683594 34.054688 19.425781 34.792969 C 20.164062 35.535156 21.363281 35.535156 22.101562 34.792969 L 42.597656 14.300781 C 47.757812 9.121094 39.945312 1.332031 34.792969 6.492188 L 11.707031 29.574219 C 8.152344 33.128906 8.152344 38.910156 11.707031 42.464844 C 15.265625 46.015625 21.042969 46.015625 24.597656 42.464844 L 48.097656 18.964844 Z M 54.195312 0 C 55.898438 2.539062 56.839844 4.875 57.234375 8.332031 L 87.5 8.332031 L 87.5 56.429688 C 87.5 73.542969 62.5 66.667969 62.5 66.667969 C 62.5 66.667969 68.824219 91.667969 51.507812 91.667969 L 20.832031 91.667969 L 20.832031 58.074219 C 18.207031 58.386719 16.667969 58.617188 12.5 57.519531 L 12.5 100 L 54.953125 100 C 68.132812 100 95.832031 69.902344 95.832031 59.941406 L 95.832031 0 Z M 75 25 L 60.738281 25 L 56.570312 29.167969 L 75 29.167969 Z M 75 37.5 L 48.238281 37.5 L 44.070312 41.667969 L 75 41.667969 Z M 75 50 L 35.738281 50 L 33.933594 51.804688 C 33.050781 52.691406 32.0625 53.449219 31.0625 54.167969 L 75 54.167969 Z M 75 50 "/>
</g>
</svg>
