<?xml version="1.0" encoding="UTF-8"?>
<svg xmlns="http://www.w3.org/2000/svg" xmlns:xlink="http://www.w3.org/1999/xlink" width="100pt" height="100pt" viewBox="0 0 100 100" version="1.1">
<g id="surface1">
<path style=" stroke:none;fill-rule:nonzero;fill:rgb(0%,0%,0%);fill-opacity:1;" d="M 25 50 L 66.667969 50 L 66.667969 54.167969 L 25 54.167969 Z M 57.566406 37.5 L 25 37.5 L 25 41.667969 L 62.695312 41.667969 C 60.820312 40.488281 59.101562 39.089844 57.566406 37.5 Z M 79.167969 45.730469 L 79.167969 56.433594 C 79.167969 73.542969 54.167969 66.667969 54.167969 66.667969 C 54.167969 66.667969 60.492188 91.667969 43.175781 91.667969 L 12.5 91.667969 L 12.5 8.332031 L 52.082031 8.332031 C 53.382812 5.210938 55.261719 2.398438 57.566406 0 L 4.167969 0 L 4.167969 100 L 46.621094 100 C 59.800781 100 87.5 69.902344 87.5 59.941406 L 87.5 43.75 C 84.902344 44.832031 82.097656 45.503906 79.167969 45.730469 Z M 25 29.167969 L 52.082031 29.167969 C 51.523438 27.832031 51.097656 26.433594 50.753906 25 L 25 25 Z M 95.832031 18.75 C 95.832031 29.105469 87.429688 37.5 77.082031 37.5 C 66.738281 37.5 58.332031 29.105469 58.332031 18.75 C 58.332031 8.394531 66.738281 0 77.082031 0 C 87.429688 0 95.832031 8.394531 95.832031 18.75 Z M 87.5 16.667969 L 79.167969 16.667969 L 79.167969 8.332031 L 75 8.332031 L 75 16.667969 L 66.667969 16.667969 L 66.667969 20.832031 L 75 20.832031 L 75 29.167969 L 79.167969 29.167969 L 79.167969 20.832031 L 87.5 20.832031 Z M 87.5 16.667969 "/>
</g>
</svg>
