<?xml version="1.0" encoding="UTF-8"?>
<svg xmlns="http://www.w3.org/2000/svg" xmlns:xlink="http://www.w3.org/1999/xlink" width="100pt" height="100pt" viewBox="0 0 100 100" version="1.1">
<g id="surface1">
<path style=" stroke:none;fill-rule:nonzero;fill:rgb(0%,0%,0%);fill-opacity:1;" d="M 16.667969 91.667969 L 16.667969 8.332031 L 83.332031 8.332031 L 83.332031 56.429688 C 83.332031 73.542969 58.332031 66.667969 58.332031 66.667969 C 58.332031 66.667969 64.660156 91.667969 47.339844 91.667969 Z M 91.667969 59.941406 L 91.667969 0 L 8.332031 0 L 8.332031 100 L 50.789062 100 C 63.964844 100 91.667969 69.902344 91.667969 59.941406 Z M 70.832031 54.167969 L 29.167969 54.167969 L 29.167969 50 L 70.832031 50 Z M 70.832031 37.5 L 29.167969 37.5 L 29.167969 41.667969 L 70.832031 41.667969 Z M 70.832031 25 L 29.167969 25 L 29.167969 29.167969 L 70.832031 29.167969 Z M 70.832031 25 "/>
</g>
</svg>
