<?xml version="1.0" encoding="UTF-8"?>
<svg xmlns="http://www.w3.org/2000/svg" xmlns:xlink="http://www.w3.org/1999/xlink" width="100pt" height="100pt" viewBox="0 0 100 100" version="1.1">
<g id="surface1">
<path style=" stroke:none;fill-rule:nonzero;fill:rgb(0%,0%,0%);fill-opacity:1;" d="M 25 91.667969 L 25 25 L 91.667969 25 L 91.667969 56.429688 C 91.667969 73.542969 66.667969 66.667969 66.667969 66.667969 C 66.667969 66.667969 72.992188 91.667969 55.675781 91.667969 Z M 100 59.941406 L 100 16.667969 L 16.667969 16.667969 L 16.667969 100 L 59.121094 100 C 72.300781 100 100 69.902344 100 59.941406 Z M 58.332031 66.667969 L 37.5 66.667969 L 37.5 62.5 L 58.332031 62.5 Z M 79.167969 50 L 37.5 50 L 37.5 54.167969 L 79.167969 54.167969 Z M 79.167969 37.5 L 37.5 37.5 L 37.5 41.667969 L 79.167969 41.667969 Z M 87.5 8.332031 L 8.332031 8.332031 L 8.332031 87.5 L 0 87.5 L 0 0 L 87.5 0 Z M 87.5 8.332031 "/>
</g>
</svg>
