<?xml version="1.0" encoding="UTF-8"?>
<svg width="100px" height="100px" viewBox="0 0 100 100" version="1.1" xmlns="http://www.w3.org/2000/svg" xmlns:xlink="http://www.w3.org/1999/xlink">
    <!-- Generator: Sketch 47 (45396) - http://www.bohemiancoding.com/sketch -->
    <title>info</title>
    <desc>Created with Sketch.</desc>
    <defs></defs>
    <g id="Page-1" stroke="none" stroke-width="1" fill="none" fill-rule="evenodd">
        <g id="info">
            <circle id="Combined-Shape" fill="#000000" cx="50" cy="50" r="45"></circle>
            <g id="Group" transform="translate(39.000000, 25.000000)" fill="#FFFFFF">
                <path d="M5.23809524,6.91489362 C5.23809524,5.03016181 5.85673874,3.40651518 7.0940443,2.04390502 C8.33134987,0.68129486 9.81375977,0 11.5413185,0 C13.2922226,0 14.7746325,0.674927618 15.9885927,2.0248031 C17.2025528,3.37467859 17.8095238,5.00469246 17.8095238,6.91489362 C17.8095238,8.82509477 17.1967166,10.4551086 15.9710837,11.8049841 C14.7454508,13.1548596 13.2688772,13.8297872 11.5413185,13.8297872 C9.7437236,13.8297872 8.24380492,13.1357579 7.04151744,11.7476784 C5.83922996,10.3595989 5.23809524,8.74868673 5.23809524,6.91489362 Z M17.1111111,18.0851064 L17.1111111,41.0473479 C17.1111111,42.9452697 17.3986899,44.2500714 17.9738562,44.961792 C18.5490225,45.6735127 19.891057,46.0293677 22,46.0293677 L22,50 L0,50 L0,46.0293677 L0.826797386,46.0293677 C2.86384461,46.0293677 4.15195809,45.6547835 4.69117647,44.9056038 C5.23039485,44.1564242 5.5,42.8703517 5.5,41.0473479 L5.5,29.8846269 C5.5,28.0366504 5.22440363,26.7443349 4.67320261,26.0076416 C4.1220016,25.2709483 2.83987935,24.9026071 0.826797386,24.9026071 L0,24.9026071 L0,20.9319748 L17.1111111,18.0851064 Z" id="i"></path>
            </g>
        </g>
    </g>
</svg>