<?xml version="1.0" encoding="UTF-8"?>
<svg xmlns="http://www.w3.org/2000/svg" xmlns:xlink="http://www.w3.org/1999/xlink" width="100pt" height="100pt" viewBox="0 0 100 100" version="1.1">
<g id="surface1">
<path style=" stroke:none;fill-rule:nonzero;fill:rgb(0%,0%,0%);fill-opacity:1;" d="M 50 8.332031 C 72.976562 8.332031 91.667969 27.023438 91.667969 50 C 91.667969 72.976562 72.976562 91.667969 50 91.667969 C 27.023438 91.667969 8.332031 72.976562 8.332031 50 C 8.332031 27.023438 27.023438 8.332031 50 8.332031 Z M 50 0 C 22.386719 0 0 22.386719 0 50 C 0 77.613281 22.386719 100 50 100 C 77.613281 100 100 77.613281 100 50 C 100 22.386719 77.613281 0 50 0 Z M 49.996094 23.957031 C 52.871094 23.957031 55.207031 26.292969 55.207031 29.167969 C 55.207031 32.042969 52.871094 34.375 49.996094 34.375 C 47.121094 34.375 44.792969 32.042969 44.792969 29.167969 C 44.792969 26.292969 47.121094 23.957031 49.996094 23.957031 Z M 58.332031 75 L 41.667969 75 L 41.667969 70.832031 C 43.683594 70.085938 45.832031 69.996094 45.832031 67.769531 L 45.832031 49.160156 C 45.832031 46.933594 43.683594 46.582031 41.667969 45.835938 L 41.667969 41.671875 L 54.167969 41.671875 L 54.167969 67.773438 C 54.167969 70.003906 56.320312 70.101562 58.332031 70.835938 Z M 58.332031 75 "/>
</g>
</svg>
