<?xml version="1.0" encoding="UTF-8"?>
<svg width="100px" height="100px" viewBox="0 0 100 100" version="1.1" xmlns="http://www.w3.org/2000/svg" xmlns:xlink="http://www.w3.org/1999/xlink">
    <!-- Generator: Sketch 47 (45396) - http://www.bohemiancoding.com/sketch -->
    <title>padlock</title>
    <desc>Created with Sketch.</desc>
    <defs></defs>
    <g id="Page-1" stroke="none" stroke-width="1" fill="none" fill-rule="evenodd">
        <g id="padlock" fill-rule="nonzero" fill="#000000">
            <g id="Group" transform="translate(12.000000, 3.000000)">
                <path d="M75.0034843,92.3105216 C75.0034843,93.2397347 74.1094031,94 73.0166371,94 L1.98684727,94 C0.89408127,94 0,93.2397347 0,92.3105216 L0,40.9926143 C0,40.0634012 0.89408127,39.3031359 1.98684727,39.3031359 L73.0166371,39.3031359 C74.1094031,39.3031359 75.0034843,40.0634012 75.0034843,40.9926143 L75.0034843,92.3105216 Z" id="Combined-Shape"></path>
                <path d="M65.5052265,24.6761417 L65.5052265,45.8536585 L9.49825784,45.8536585 L9.49825784,24.6761417 C9.49825784,11.0531776 21.8485125,0 37.5017422,0 C53.1549719,-1.75994512e-14 65.5052265,11.0222164 65.5052265,24.6761417 Z M53.7449666,25.6154209 C53.7449666,17.6955194 46.5812538,11.3021296 37.5016643,11.3021296 C28.4220748,11.3021296 21.258362,17.7134784 21.258362,25.6154209 L21.258362,42.8707927 L53.7449666,42.8707927 L53.7449666,25.6154209 Z" id="Combined-Shape"></path>
            </g>
        </g>
    </g>
</svg>