<?xml version="1.0" encoding="UTF-8"?>
<svg xmlns="http://www.w3.org/2000/svg" xmlns:xlink="http://www.w3.org/1999/xlink" width="100pt" height="100pt" viewBox="0 0 100 100" version="1.1">
<g id="surface1">
<path style=" stroke:none;fill-rule:nonzero;fill:rgb(0%,0%,0%);fill-opacity:1;" d="M 89.941406 43.585938 L 48.066406 85.566406 C 39.941406 93.6875 26.726562 93.6875 18.605469 85.566406 C 10.484375 77.445312 10.480469 64.226562 18.605469 56.101562 L 62.886719 11.996094 C 67.761719 7.121094 75.691406 7.121094 80.566406 11.996094 C 85.4375 16.871094 85.441406 24.796875 80.566406 29.671875 L 45.121094 64.9375 C 43.496094 66.5625 40.855469 66.5625 39.230469 64.9375 C 37.605469 63.3125 37.605469 60.671875 39.230469 59.046875 L 68.785156 29.671875 L 62.886719 23.777344 L 33.332031 53.148438 C 28.449219 58.035156 28.453125 65.953125 33.332031 70.832031 C 38.210938 75.710938 46.128906 75.710938 51.007812 70.832031 L 86.453125 35.566406 C 90.523438 31.496094 92.554688 26.167969 92.554688 20.832031 C 92.554688 9.296875 83.195312 0.00390625 71.722656 0.00390625 C 66.386719 0.00390625 61.058594 2.039062 56.988281 6.109375 L 12.707031 50.203125 C 7.015625 55.902344 4.167969 63.367188 4.167969 70.832031 C 4.167969 86.929688 17.207031 100 33.332031 100 C 40.800781 100 48.261719 97.148438 53.957031 91.457031 L 95.832031 49.480469 Z M 89.941406 43.585938 "/>
</g>
</svg>
