<?xml version="1.0" encoding="UTF-8"?>
<svg width="100px" height="100px" viewBox="0 0 100 100" version="1.1" xmlns="http://www.w3.org/2000/svg" xmlns:xlink="http://www.w3.org/1999/xlink">
    <!-- Generator: Sketch 47 (45396) - http://www.bohemiancoding.com/sketch -->
    <title>warning</title>
    <desc>Created with Sketch.</desc>
    <defs></defs>
    <g id="Page-1" stroke="none" stroke-width="1" fill="none" fill-rule="evenodd">
        <g id="warning" fill="#000000">
            <g id="Group" transform="translate(-4.000000, 0.000000)">
                <g id="Group-2">
                    <path d="M61.1209961,11.5566749 L99.5228508,77.3884258 C102.027373,81.681893 100.577147,87.1927526 96.28368,89.6972751 C94.9072554,90.5001894 93.3423325,90.923265 91.7488407,90.923265 L14.9451313,90.923265 C9.9745686,90.923265 5.94513135,86.8938278 5.94513135,81.923265 C5.94513135,80.3297733 6.36820693,78.7648503 7.17112124,77.3884258 L45.5729759,11.5566749 L45.5729759,11.5566749 C48.0774985,7.26320766 53.588358,5.81298146 57.8818253,8.31750401 C59.222858,9.09977309 60.3387271,10.2156422 61.1209961,11.5566749 L61.1209961,11.5566749 Z M46.7389558,31.9337718 L47.8252074,61.2625633 L58.3256389,61.2625633 L59.4118905,31.9337718 L46.7389558,31.9337718 Z M53.0754232,76.6813004 C56.575567,76.6813004 59.4722378,74.0260189 59.4722378,70.6465696 C59.4722378,67.2972941 56.575567,64.6420125 53.0754232,64.6420125 C49.514932,64.6420125 46.6484349,67.2972941 46.6484349,70.6465696 C46.6484349,74.0260189 49.514932,76.6813004 53.0754232,76.6813004 Z" id="Combined-Shape"></path>
                </g>
            </g>
        </g>
    </g>
</svg>